<svg xmlns="http://www.w3.org/2000/svg" width="13" height="9" viewBox="0 0 13 9"><g><g><path fill="#fff" d="M12.998 4.15c-.458.078-1.121-.003-1.473-.15.73-.06 1.226-.394 1.416-.847-.263.163-1.081.34-1.532.171a5.507 5.507 0 0 0-.072-.3C10.993 1.756 9.815.733 8.581.857c.1-.04.2-.078.303-.112.135-.05.932-.18.807-.462-.106-.25-1.08.187-1.264.244.242-.09.643-.248.685-.528-.37.051-.735.227-1.016.484a.7.7 0 0 0 .195-.388c-.99.636-1.567 1.915-2.035 3.158-.367-.358-.693-.64-.985-.797-.819-.44-1.798-.901-3.336-1.475-.047.511.252 1.191 1.112 1.643-.186-.025-.527.031-.8.096.111.586.474 1.069 1.456 1.302-.448.03-.68.133-.89.354.204.407.703.886 1.6.788-.998.432-.407 1.233.405 1.113-1.385 1.438-3.569 1.332-4.823.13 3.274 4.483 10.391 2.65 11.452-1.667.795.006 1.261-.277 1.551-.59z"/></g></g></svg>