<svg xmlns="http://www.w3.org/2000/svg" width="11" height="18" viewBox="0 0 11 18"><defs><mask id="v3a4b" width="2" height="2" x="-1" y="-1"><path fill="#fff" d="M0 0h11v17H0z"/><path d="M2.265 5.354c0-1.878 1.45-3.4 3.237-3.4 1.788 0 3.237 1.522 3.237 3.4 0 1.877-1.45 3.4-3.237 3.4-1.787 0-3.237-1.522-3.237-3.4zM0 5.779c0 1.422 1.641 4.42 1.641 4.42L5.502 17l3.639-6.8s1.863-3.02 1.863-4.42c0-3.193-2.463-5.781-5.502-5.781C2.463-.002 0 2.586 0 5.778z"/></mask><filter id="v3a4a" width="31" height="38" x="-10" y="-10" filterUnits="userSpaceOnUse"><feOffset dy="1" in="SourceGraphic" result="FeOffset1053Out"/><feGaussianBlur in="FeOffset1053Out" result="FeGaussianBlur1054Out" stdDeviation="0 0"/></filter></defs><g><g><g filter="url(#v3a4a)"><path fill="none" d="M2.265 5.354c0-1.878 1.45-3.4 3.237-3.4 1.788 0 3.237 1.522 3.237 3.4 0 1.877-1.45 3.4-3.237 3.4-1.787 0-3.237-1.522-3.237-3.4zM0 5.779c0 1.422 1.641 4.42 1.641 4.42L5.502 17l3.639-6.8s1.863-3.02 1.863-4.42c0-3.193-2.463-5.781-5.502-5.781C2.463-.002 0 2.586 0 5.778z" mask="url(&quot;#v3a4b&quot;)"/><path fill="#fff" d="M2.265 5.354c0-1.878 1.45-3.4 3.237-3.4 1.788 0 3.237 1.522 3.237 3.4 0 1.877-1.45 3.4-3.237 3.4-1.787 0-3.237-1.522-3.237-3.4zM0 5.779c0 1.422 1.641 4.42 1.641 4.42L5.502 17l3.639-6.8s1.863-3.02 1.863-4.42c0-3.193-2.463-5.781-5.502-5.781C2.463-.002 0 2.586 0 5.778z"/></g><path fill="#fff" d="M2.265 5.354c0-1.878 1.45-3.4 3.237-3.4 1.788 0 3.237 1.522 3.237 3.4 0 1.877-1.45 3.4-3.237 3.4-1.787 0-3.237-1.522-3.237-3.4zM0 5.779c0 1.422 1.641 4.42 1.641 4.42L5.502 17l3.639-6.8s1.863-3.02 1.863-4.42c0-3.193-2.463-5.781-5.502-5.781C2.463-.002 0 2.586 0 5.778z"/><path fill="#c7c7c7" d="M2.265 5.354c0-1.878 1.45-3.4 3.237-3.4 1.788 0 3.237 1.522 3.237 3.4 0 1.877-1.45 3.4-3.237 3.4-1.787 0-3.237-1.522-3.237-3.4zM0 5.779c0 1.422 1.641 4.42 1.641 4.42L5.502 17l3.639-6.8s1.863-3.02 1.863-4.42c0-3.193-2.463-5.781-5.502-5.781C2.463-.002 0 2.586 0 5.778z"/></g></g></svg>